HIERARCHY
ROOT Pelvis
{
	OFFSET 0.000000 0.000000 0.000000
	CHANNELS 6 Xposition Yposition Zposition Xrotation Yrotation Zrotation
	JOINT LeftUpLeg_virtual
	{
		OFFSET 0.000000 0.000000 0.000000
		CHANNELS 3 Xrotation Yrotation Zrotation
		JOINT LeftUpLeg
		{
			OFFSET 18.735201 -5.666702 -4.541200
			CHANNELS 3 Xrotation Yrotation Zrotation
			JOINT LeftLeg
			{
				OFFSET -0.021200 -31.938179 0.493100
				CHANNELS 3 Xrotation Yrotation Zrotation
				JOINT LeftFoot
				{
					OFFSET 0.021200 -31.938179 -4.336299
					CHANNELS 3 Xrotation Yrotation Zrotation
					JOINT LeftToeBase
					{
						OFFSET 0.943001 -26.722000 15.023500
						CHANNELS 3 Xrotation Yrotation Zrotation
						End Site
						{
							OFFSET 0 0 0
						}
					}
				}
			}
		}
	}
	JOINT RightUpLeg_virtual
	{
		OFFSET 0.000000 0.000000 0.000000
		CHANNELS 3 Xrotation Yrotation Zrotation
		JOINT RightUpLeg
		{
			OFFSET -18.735201 -5.666702 -4.541200
			CHANNELS 3 Xrotation Yrotation Zrotation
			JOINT RightLeg
			{
				OFFSET 0.018946 -31.938133 0.493100
				CHANNELS 3 Xrotation Yrotation Zrotation
				JOINT RightFoot
				{
					OFFSET -0.018946 -31.938126 -4.336299
					CHANNELS 3 Xrotation Yrotation Zrotation
					JOINT RightToeBase
					{
						OFFSET -0.943001 -26.722004 15.023500
						CHANNELS 3 Xrotation Yrotation Zrotation
						End Site
						{
							OFFSET 0 0 0
						}
					}
				}
			}
		}
	}
	JOINT Hips_virtual
	{
		OFFSET 0.000000 0.000000 0.000000
		CHANNELS 3 Xrotation Yrotation Zrotation
		JOINT Hips
		{
			OFFSET -0.000000 -0.000000 -0.000000
			CHANNELS 3 Xrotation Yrotation Zrotation
			JOINT Spine
			{
				OFFSET 0.000000 10.199997 -0.299500
				CHANNELS 3 Xrotation Yrotation Zrotation
				JOINT Spine1
				{
					OFFSET 0.000000 11.900002 -1.516600
					CHANNELS 3 Xrotation Yrotation Zrotation
					JOINT Spine2
					{
						OFFSET 0.000000 13.600006 -2.842500
						CHANNELS 3 Xrotation Yrotation Zrotation
						JOINT Neck_virtual
						{
							OFFSET 0.000000 0.000000 0.000000
							CHANNELS 3 Xrotation Yrotation Zrotation
							JOINT Neck
							{
								OFFSET 0.000000 9.624100 -2.890100
								CHANNELS 3 Xrotation Yrotation Zrotation
								JOINT Head
								{
									OFFSET 0.000000 14.068802 -1.351900
									CHANNELS 3 Xrotation Yrotation Zrotation
									End Site
									{
										OFFSET 0 0 0
									}
								}
							}
						}
						JOINT LeftShoulder_virtual
						{
							OFFSET 0.000000 0.000000 0.000000
							CHANNELS 3 Xrotation Yrotation Zrotation
							JOINT LeftShoulder
							{
								OFFSET 15.263000 10.923401 -0.547700
								CHANNELS 3 Xrotation Yrotation Zrotation
								JOINT LeftArm
								{
									OFFSET 25.438599 -2.830597 -13.032500
									CHANNELS 3 Xrotation Yrotation Zrotation
									JOINT LeftForeArm
									{
										OFFSET 29.960503 0.000000 0.000000
										CHANNELS 3 Xrotation Yrotation Zrotation
										JOINT LeftHand
										{
											OFFSET 27.849251 0.000000 0.000000
											CHANNELS 3 Xrotation Yrotation Zrotation
											End Site
											{
												OFFSET 0 0 0
											}
										}
									}
								}
							}
						}
						JOINT RightShoulder_virtual
						{
							OFFSET 0.000000 0.000000 0.000000
							CHANNELS 3 Xrotation Yrotation Zrotation
							JOINT RightShoulder
							{
								OFFSET -15.263000 10.923401 -0.547700
								CHANNELS 3 Xrotation Yrotation Zrotation
								JOINT RightArm
								{
									OFFSET -25.438599 -2.830597 -13.032500
									CHANNELS 3 Xrotation Yrotation Zrotation
									JOINT RightForeArm
									{
										OFFSET -29.960503 0.000000 0.000000
										CHANNELS 3 Xrotation Yrotation Zrotation
										JOINT RightHand
										{
											OFFSET -27.849251 0.000000 0.000000
											CHANNELS 3 Xrotation Yrotation Zrotation
											End Site
											{
												OFFSET 0 0 0
											}
										}
									}
								}
							}
						}
					}
				}
			}
		}
	}
}
MOTION
Frames: 6
Frame Time: 0.03333333
-5.837875 84.923203 49.276268 0.000000 0.000000 0.000000 29.892576 6.622764 -17.625774 -81.582976 -4.244623 13.054202 46.164183 7.012229 -8.134754 4.583024 0.384632 9.154384 0.000000 0.000000 0.000000 29.892576 6.622764 -17.625774 -18.344753 -21.761218 -22.063753 73.419008 -5.908877 -3.401663 41.794371 1.071091 2.347669 0.000000 0.000000 0.000000 29.892576 6.622764 -17.625774 -0.000001 0.000000 -0.000001 6.141962 11.474293 -8.437922 11.648234 11.205352 -7.545702 0.000000 0.000000 0.000000 11.698388 11.155145 -7.567838 -4.056888 -2.704129 3.126962 0.000000 0.000000 0.000000 11.698388 11.155145 -7.567838 -0.266290 3.848959 2.890081 28.180063 -44.869832 -18.300124 -0.000001 -24.379727 0.000006 0.000000 0.000000 0.000000 11.698388 11.155145 -7.567838 4.952145 16.802286 -7.381368 -6.598546 60.118191 21.651657 0.000001 37.609129 -0.000007 0.000000 0.000000 0.000000 
-5.902791 84.742424 49.732464 0.000000 0.000000 0.000000 29.038754 7.169726 -17.468503 -81.213784 -3.816408 13.217599 47.602812 6.234967 -8.093675 3.611849 0.347050 9.072546 0.000000 0.000000 0.000000 29.038754 7.169726 -17.468503 -19.338127 -21.716868 -21.282837 71.430829 -4.960632 -3.492168 42.037697 0.709049 1.265388 0.000000 0.000000 0.000000 29.038754 7.169726 -17.468503 -0.000002 0.000000 0.000000 6.149848 10.757325 -8.785659 11.676786 10.962427 -7.565075 0.000000 0.000000 0.000000 11.760133 10.875364 -7.586996 -4.098119 -2.671902 3.062224 0.000000 0.000000 0.000000 11.760133 10.875364 -7.586996 -0.255811 3.725903 3.215409 28.574289 -46.645988 -14.108369 -0.000001 -23.223243 -0.000015 0.000000 0.000000 0.000000 11.760133 10.875364 -7.586996 4.755299 16.291738 -6.875270 -6.385721 57.667123 19.002377 0.000002 35.965625 0.000021 0.000000 0.000000 0.000000 
-5.958513 84.614471 50.202118 0.000000 0.000000 0.000000 28.180462 7.701765 -17.340114 -80.762534 -3.286944 13.416926 48.867531 5.368851 -7.951945 2.692662 0.314352 9.007051 0.000000 0.000000 0.000000 28.180462 7.701765 -17.340114 -20.202219 -21.530652 -20.521600 69.414174 -4.120123 -3.710674 42.152396 0.551911 0.841560 0.000000 0.000000 0.000000 28.180462 7.701765 -17.340114 -0.000001 0.000000 -0.000001 6.173531 10.019993 -9.138498 11.743703 10.656880 -7.606242 0.000000 0.000000 0.000000 11.860007 10.534735 -7.618956 -4.146134 -2.636778 3.004336 0.000000 0.000000 0.000000 11.860007 10.534735 -7.618956 -0.246501 3.605296 3.561319 28.114729 -48.438882 -10.572337 0.000010 -21.961910 -0.000012 0.000000 0.000000 0.000000 11.860007 10.534735 -7.618956 4.570565 15.669526 -6.602631 -6.422820 55.485858 16.577528 -0.000004 34.357597 0.000009 0.000000 0.000000 0.000000 
-5.976362 84.534966 50.695950 0.000000 0.000000 0.000000 27.307877 8.227812 -17.222124 -80.213182 -2.672605 13.596444 50.007715 4.477484 -7.693795 1.781894 0.280609 8.945737 0.000000 0.000000 0.000000 27.307877 8.227812 -17.222124 -21.000330 -21.229304 -19.792526 67.357461 -3.377452 -4.019464 42.132811 0.501522 0.747402 0.000000 0.000000 0.000000 27.307877 8.227812 -17.222124 0.000001 0.000000 0.000000 6.215385 9.244872 -9.491656 11.857649 10.258354 -7.663927 0.000000 0.000000 0.000000 12.006327 10.104654 -7.655085 -4.196823 -2.595711 2.953238 0.000000 0.000000 0.000000 12.006327 10.104654 -7.655085 -0.235971 3.479661 3.929595 26.629943 -50.227668 -7.790002 -0.000004 -20.582008 0.000008 0.000000 0.000000 0.000000 12.006327 10.104654 -7.655085 4.407066 14.991007 -6.564024 -6.689353 53.586010 14.333821 -0.000017 32.841455 -0.000002 0.000000 0.000000 0.000000 
-5.916547 84.508492 51.232025 0.000000 0.000000 0.000000 26.407151 8.751841 -17.090660 -79.512636 -1.998376 13.702294 51.056504 3.646559 -7.330728 0.824095 0.239222 8.885443 0.000000 0.000000 0.000000 26.407151 8.751841 -17.090660 -21.796829 -20.869334 -19.105596 65.253462 -2.674049 -4.358450 41.955031 0.430047 0.572788 0.000000 0.000000 0.000000 26.407151 8.751841 -17.090660 -0.000003 0.000000 0.000000 6.275193 8.420550 -9.836879 12.021819 9.741559 -7.730877 0.000000 0.000000 0.000000 12.202105 9.561369 -7.685873 -4.246878 -2.545771 2.907651 0.000000 0.000000 0.000000 12.202105 9.561369 -7.685873 -0.221330 3.342415 4.318530 24.076407 -51.955968 -5.803369 0.000009 -19.112196 0.000008 0.000000 0.000000 0.000000 12.202105 9.561369 -7.685873 4.269306 14.317944 -6.742146 -7.185951 51.966664 12.264341 -0.000001 31.452796 0.000004 0.000000 0.000000 0.000000 
-5.741568 84.547424 51.825729 0.000000 0.000000 0.000000 25.461422 9.268297 -16.928784 -78.587822 -1.302704 13.701556 52.021692 2.965952 -6.902231 -0.227943 0.184897 8.831297 0.000000 0.000000 0.000000 25.461422 9.268297 -16.928784 -22.638476 -20.537540 -18.470727 63.093941 -1.920768 -4.671618 41.582198 0.225214 -0.048935 0.000000 0.000000 0.000000 25.461422 9.268297 -16.928784 0.000000 0.000000 0.000000 6.350677 7.544421 -10.163765 12.233801 9.089020 -7.798356 0.000000 0.000000 0.000000 12.444506 8.888620 -7.701295 -4.293818 -2.484283 2.865182 0.000000 0.000000 0.000000 12.444506 8.888620 -7.701295 -0.200066 3.190718 4.720426 20.532384 -53.536956 -4.599989 -0.000008 -17.624615 -0.000008 0.000000 0.000000 0.000000 12.444506 8.888620 -7.701295 4.159120 13.705687 -7.106585 -7.888391 50.623156 10.353890 -0.000006 30.203370 -0.000002 0.000000 0.000000 0.000000 
